<svg width="120" height="130" xmlns="http://www.w3.org/2000/svg">
 <g>
  <title>background</title>
  <rect x="-1" y="-1" width="122" height="132" id="canvas_background" fill="none"/>
 </g>

 <g>
  <title>Layer 1</title>
  <path d="m12.08384,14.79022l0.03915,0.0078c-0.01566,0 -0.02349,0 -0.03915,-0.0078zm0.03915,0.0078c0.21923,0.0235 0.43847,0.0392 0.66554,0.0392c0.15659,0 0.31319,-0.0078 0.46979,-0.0157l0,-0.0156l-1.13533,0l0,-0.0079zm-0.03915,83.4481c0.01566,0 0.02349,0 0.03915,0l-0.03915,0zm0.70469,-0.0392c-0.22707,0 -0.44631,0.0157 -0.66554,0.0392l1.13533,0l0,-0.0157c-0.1566,-0.0157 -0.3132,-0.0235 -0.46979,-0.0235zm94.81964,0c-0.157,0 -0.313,0.0078 -0.47,0.0157l0,0.0157l1.135,0c-0.219,-0.0157 -0.438,-0.0314 -0.665,-0.0314zm0.665,0.0392c0.016,0 0.024,0 0.04,0.0078l0,-0.0078l-0.04,0zm-89.7845,5.2501c0.0078,0.141 0.0156,0.282 0.0156,0.431l0,-0.431l-0.0156,0zm-0.0313,1.175l0.0469,0l0,-0.744c0,0.25 -0.0156,0.501 -0.0469,0.744zm1.2058,-1.175c0.0078,0.141 0.0156,0.282 0.0156,0.431l0,-0.431l-0.0156,0zm82.229,0.431l0,0.744l0.047,0c-0.0313,-0.243 -0.047,-0.494 -0.047,-0.744zm0,-0.431l0,0.431c0,-0.149 0.0079,-0.29 0.0157,-0.431l-0.0157,0zm-1.1744,0l0,0.431c0,-0.149 0.0078,-0.29 0.0156,-0.431l-0.0156,0zm7.5554,-88.6982l0.04,0l0,-0.0078c-0.016,0.0078 -0.024,0.0078 -0.04,0.0078zm-1.135,0.0235c0.157,0.0157 0.313,0.0157 0.47,0.0157c0.227,0 0.446,-0.0157 0.665,-0.0392l-1.135,0l0,0.0235zm-87.475,-5.27325l0.0156,0l0,-0.43095c0,0.14104 -0.0078,0.28991 -0.0156,0.43095zm-1.1745,0l0.0156,0l0,-0.43095c0,0.14104 -0.0078,0.28991 -0.0156,0.43095zm-0.0313,-1.17532c0.0313,0.2429 0.0469,0.49363 0.0469,0.74437l0,-0.74437l-0.0469,0zm82.2604,0.74437l0,0.43095l0.0156,0c-0.0078,-0.14104 -0.0156,-0.28991 -0.0156,-0.43095zm1.1744,0l0,0.43095l0.0157,0c-0.0078,-0.14104 -0.0157,-0.28991 -0.0157,-0.43095zm0,-0.74437l0,0.74437c0,-0.25074 0.0157,-0.50147 0.047,-0.74437l-0.047,0z" fill="white" id="svg_1"/>
  <path d="m49.43246,53.75592l0,0.1008c0,-0.0621 0.0078,-0.1164 0.0235,-0.1706l-0.0235,0.0698zm21.5086,-0.0698c0.0156,0.0542 0.0235,0.1163 0.0235,0.1706l0,-0.1008l-0.0235,-0.0698z" fill="white" id="svg_3"/>
  <path d="m49.43246,53.75592l0,0.1008c0,-0.0621 0.0078,-0.1164 0.0235,-0.1706l-0.0235,0.0698zm21.5086,-0.0698c0.0157,0.0542 0.0235,0.1163 0.0235,0.1706l0,-0.1008l-0.0235,-0.0698z" fill="white" id="svg_4"/>
  <path d="m90.92005,64.51564c0,-0.0079 0,-0.0157 -0.0078,-0.0157c-0.9631,-2.7659 -3.2964,-9.2615 -5.4731,-15.0363c-1.2449,-3.3066 -2.2706,-5.9315 -3.0458,-7.8042c-0.4463,-1.0813 -0.8143,-1.9118 -1.0961,-2.4838c-0.0079,-0.0235 -0.0235,-0.047 -0.0314,-0.0627l1.0336,0c0.321,0 0.5872,-0.2664 0.5872,-0.5877c0,-0.3212 -0.2662,-0.5876 -0.5872,-0.5876l-2.1141,0c-0.0156,0 -0.0235,0 -0.0391,0c1.4798,-1.2694 2.7796,-3.0167 2.7796,-5.5632c0,-2.0059 -1.0101,-3.1499 -1.8635,-3.7611c-1.0101,-0.7208 -2.1924,-0.9794 -2.9519,-0.9794c-1.6756,0 -3.3668,1.0186 -3.3668,3.2909c0,0.8462 0.4306,1.5671 1.2058,2.0216c0.4619,0.2664 0.963,0.4074 1.3467,0.4623c0.1409,0.0391 0.2975,0.0626 0.4541,0.0626c0.9318,0 1.6835,-0.7522 1.6835,-1.6846c0,-0.9324 -0.7517,-1.6846 -1.6835,-1.6846c-0.8456,0 -1.5425,0.619 -1.6599,1.426c-0.1174,-0.1723 -0.1723,-0.3761 -0.1723,-0.6033c0,-0.4936 0.1566,-2.1156 2.1924,-2.1156c0.9474,0 3.6409,0.6582 3.6409,3.5652c0,2.7111 -1.7617,4.333 -3.5391,5.5632l-16.9047,0c-0.321,0 -0.5872,0.2664 -0.5872,0.5876c0,0.0941 0.0235,0.1881 0.0627,0.2664c-0.0235,-0.0235 -0.047,-0.0548 -0.0627,-0.0783c-0.1879,-0.2194 -0.4541,-0.3448 -0.7438,-0.3448c-0.2819,0 -0.5481,0.1176 -0.736,0.3291c0.0156,-0.0548 0.0313,-0.1175 0.0313,-0.1802c0,-0.3213 -0.2662,-0.5877 -0.5872,-0.5877l-16.8969,0c-1.7695,-1.2301 -3.5391,-2.8521 -3.5391,-5.5632c0,-1.2145 0.462,-2.1547 1.3703,-2.8051c0.7908,-0.5641 1.7147,-0.76 2.2706,-0.76c2.0358,0 2.1924,1.6219 2.1924,2.1156c0,0.235 -0.0705,0.4388 -0.1801,0.6033c-0.1253,-0.8071 -0.8221,-1.4261 -1.6599,-1.4261c-0.9318,0 -1.6834,0.7523 -1.6834,1.6847c0,0.9324 0.7516,1.6846 1.6834,1.6846c0.1566,0 0.3132,-0.0235 0.4541,-0.0627c0.3915,-0.0548 0.8926,-0.188 1.3467,-0.4623c0.783,-0.4623 1.2137,-1.1753 1.2137,-2.0215c0,-2.2723 -1.6913,-3.2909 -3.3669,-3.2909c-0.7673,0 -1.9418,0.2585 -2.9518,0.9794c-0.8535,0.6112 -1.8635,1.7552 -1.8635,3.761c0,2.5466 1.2997,4.2939 2.7796,5.5632c-0.0157,0 -0.0235,0 -0.0392,0l-2.114,0c-0.3211,0 -0.5873,0.2664 -0.5873,0.5877c0,0.3213 0.2662,0.5877 0.5873,0.5877l1.0335,0c-0.0078,0.0235 -0.0235,0.047 -0.0313,0.0626c-0.2819,0.572 -0.6499,1.4026 -1.0962,2.4839c-0.7752,1.8727 -1.8009,4.4976 -3.0458,7.8042c-2.1767,5.7747 -4.51,12.2703 -5.4731,15.0363c0,0.0078 0,0.0156 -0.0078,0.0156c-0.0157,0.0549 -0.0235,0.1176 -0.0235,0.1724c0,5.9393 4.831,10.7738 10.766,10.7738c5.9351,0 10.7583,-4.8266 10.7583,-10.7659c0,-0.0627 -0.0079,-0.1176 -0.0235,-0.1724c0,-0.0079 0,-0.0079 -0.0079,-0.0157c-0.9787,-2.8129 -3.3355,-9.3869 -5.5357,-15.2165c-1.2293,-3.2596 -2.2393,-5.8453 -3.0145,-7.6945c-0.4384,-1.0578 -0.8064,-1.8805 -1.0805,-2.4368c-0.0078,-0.0157 -0.0156,-0.0314 -0.0235,-0.047l17.7895,0c0.0939,0 0.1879,-0.0235 0.2662,-0.0627c-1.1119,1.3399 -2.6935,3.4789 -2.6935,4.8815c0,0.0705 0,0.141 0.0078,0.2116c-1.6442,0.6503 -2.4742,2.476 -2.4742,5.43l0,25.5437c0,0.8149 0.0078,1.5514 0.0078,2.2017c0,0.29 0.0079,0.572 0.0079,0.8384c-0.3132,-0.0626 -0.6421,-0.094 -0.9944,-0.094c-1.5347,0 -2.3098,0.6582 -2.6857,1.2067c-0.6029,0.8854 -0.5794,2.0451 -0.2897,2.8051c0.2584,0.666 0.8456,1.1988 1.6051,1.4652c0.8378,0.2899 1.7304,0.2038 2.4508,-0.2272c0.7203,-0.4309 0.9082,-1.2537 0.9944,-1.998c0.0391,-0.3605 0.0626,-0.7914 0.0783,-1.2851c0.2035,0.1881 0.3915,0.4153 0.5559,0.6739c0.4854,0.76 0.7673,1.8413 0.7673,2.8913l0,6.7385l-4.0245,0c-1.6051,0 -2.4116,-0.7679 -2.4664,-2.3506c0.3758,0.7678 1.1666,1.2928 2.0749,1.2928c1.2762,0 2.3098,-1.0343 2.3098,-2.3115c0,-1.2771 -1.0336,-2.3114 -2.3098,-2.3114c-0.0235,0 -0.0548,0 -0.0783,0c-0.8848,0 -3.1711,0.572 -3.1711,3.1734c0,2.3428 1.3311,3.6826 3.6409,3.6826l15.4639,0c2.3177,0 3.6409,-1.3398 3.6409,-3.6826c0,-2.6014 -2.2863,-3.1734 -3.1711,-3.1734c-0.0235,0 -0.0548,0 -0.0783,0c-1.2762,0 -2.3098,1.0343 -2.3098,2.3114c0,1.2772 1.0336,2.3115 2.3098,2.3115c0.9083,0 1.6991,-0.525 2.0749,-1.2928c-0.0469,1.5827 -0.8534,2.3506 -2.4664,2.3506l-4.0323,0l0,-6.7385c0,-1.05 0.2897,-2.1234 0.7673,-2.8913c0.1644,-0.2586 0.3523,-0.4858 0.5559,-0.6739c0.0157,0.5015 0.0391,0.9246 0.0783,1.2929c0.0861,0.7444 0.2662,1.5593 0.9944,1.998c0.7203,0.431 1.6129,0.5172 2.4507,0.2273c0.7674,-0.2664 1.3546,-0.7992 1.6052,-1.4653c0.2897,-0.76 0.3131,-1.9197 -0.2898,-2.8051c-0.3758,-0.5485 -1.1509,-1.2066 -2.6856,-1.2066c-0.3445,0 -0.6734,0.0313 -0.9944,0.094c0,-0.2664 0,-0.5407 0.0078,-0.8306c0,-0.6503 0.0079,-1.3869 0.0079,-2.2018l0,-25.5593c0,-2.9775 -0.8456,-4.811 -2.5134,-5.4457c0,-0.0627 0.0078,-0.1254 0.0078,-0.1959c0,-1.4182 -1.6208,-3.5965 -2.7404,-4.9364c0.0939,0.0784 0.2192,0.1176 0.3523,0.1176l17.7816,0c-0.0078,0.0156 -0.0157,0.0313 -0.0235,0.047c-0.274,0.5563 -0.642,1.379 -1.0805,2.4368c-0.7673,1.8492 -1.7852,4.4349 -3.0145,7.6945c-2.2002,5.8296 -4.557,12.4036 -5.5357,15.2165c0,0.0078 -0.0078,0.0157 -0.0078,0.0157c-0.0157,0.0548 -0.0235,0.1175 -0.0235,0.1724c0,5.9393 4.831,10.7738 10.766,10.7738c5.935,0 10.7817,-4.8345 10.7817,-10.7738c0,-0.0627 -0.0078,-0.1176 -0.0235,-0.1724zm-51.1054,9.7708c-5.0894,0 -9.2705,-3.9882 -9.5759,-9.0108l1.887,0c0.2975,3.9805 3.6331,7.1303 7.6889,7.1303c4.0559,0 7.3914,-3.1498 7.6889,-7.1303l1.887,0c-0.3053,5.0226 -4.4865,9.0108 -9.5759,9.0108zm-6.5144,-9.0108l13.021,0c-0.2975,3.3301 -3.1006,5.955 -6.5144,5.955c-3.4138,0 -6.2091,-2.6249 -6.5066,-5.955zm10.8365,-14.9893c2.0436,5.43 4.0402,10.9854 5.0268,13.814l-18.6977,0c1.0335,-2.9226 3.0458,-8.525 4.9719,-13.6416c2.7013,-7.1851 3.8758,-9.8884 4.3847,-10.8992c0.5012,1.003 1.66,3.667 4.3143,10.7268zm9.1531,32.0002c-0.415,0.2507 -0.9631,0.2977 -1.4642,0.1254c-0.4306,-0.1489 -0.7673,-0.4388 -0.8926,-0.7679c-0.1488,-0.384 -0.2271,-1.1518 0.1644,-1.716c0.3132,-0.4623 0.8926,-0.6974 1.7148,-0.6974c0.3523,0 0.689,0.0471 0.9944,0.1332c-0.0157,1.7474 -0.1175,2.6798 -0.5168,2.9227zm13.8901,-3.0637c0.8222,0 1.4016,0.2351 1.7148,0.6974c0.3836,0.5641 0.3053,1.332 0.1644,1.7159c-0.1253,0.337 -0.462,0.619 -0.8926,0.7679c-0.5011,0.1724 -1.0492,0.1254 -1.4642,-0.1253c-0.3993,-0.2429 -0.4933,-1.1754 -0.5089,-2.9305c0.3053,-0.0784 0.6342,-0.1254 0.9865,-0.1254zm-3.7426,-33.9434c0.6577,0.3135 1.5894,1.2224 1.5894,4.2861l0,25.5437c0,0.807 -0.0078,1.5436 -0.0078,2.1939c0,0.4623 -0.0078,0.8854 -0.0078,1.2694c-0.6108,0.3369 -1.1275,0.8305 -1.5425,1.4809c-0.8613,1.3555 -0.9553,2.9148 -0.9553,3.5181l0,6.7385l-1.9183,0l0,-40.7054l-1.2058,0l0,40.7054l-1.9183,0l0,-6.7385c0,-0.6033 -0.0939,-2.1626 -0.9552,-3.5181c-0.4072,-0.6425 -0.9239,-1.144 -1.5425,-1.4809c0,-0.384 0,-0.8071 -0.0078,-1.2694c0,-0.6503 -0.0079,-1.3869 -0.0079,-2.1939l0,-25.5437c0,-0.8933 0,-3.4398 1.5582,-4.2547c0.5481,1.3712 1.887,2.335 3.4529,2.335c1.5817,0 2.9284,-0.9795 3.4687,-2.3664zm-0.9161,-1.3555c0,1.4026 -1.1432,2.5465 -2.5447,2.5465c-1.4016,0 -2.5447,-1.1439 -2.5447,-2.5465c0,-0.7757 0.9944,-2.4447 2.5447,-4.2782c1.5503,1.8335 2.5447,3.5025 2.5447,4.2782zm13.3342,6.3624c2.6543,-7.0598 3.821,-9.7238 4.3221,-10.7268c0.5089,1.0108 1.6834,3.7141 4.3847,10.8992c1.9261,5.1166 3.9384,10.719 4.972,13.6416l-18.7056,0c0.9866,-2.8286 2.9832,-8.384 5.0268,-13.814zm10.8365,14.9893c-0.2975,3.3301 -3.1006,5.955 -6.5144,5.955c-3.4138,0 -6.2169,-2.6249 -6.5145,-5.955l13.0289,0zm-6.5144,9.0108c-5.0894,0 -9.2706,-3.9882 -9.5759,-9.0108l1.887,0c0.2975,3.9805 3.633,7.1303 7.6889,7.1303c4.0558,0 7.3914,-3.1498 7.6889,-7.1303l1.887,0c-0.3054,5.0226 -4.4865,9.0108 -9.5759,9.0108z" fill="#ffffff" id="svg_5"/>
  <path d="m111.309,101.10336c-0.924,-0.6346 -2.004,-1.0499 -3.171,-1.1753l-0.024,0l0,-29.7749l-1.174,0l0,29.7749l-5.2461,0l0,-81.0974l5.2461,0l0,29.7749l1.174,0l0,-29.7749l0.024,0c1.167,-0.1254 2.247,-0.5406 3.171,-1.1753c1.801,-1.2459 2.991,-3.33011 2.991,-5.68076c0,-3.80022 -3.093,-6.89524 -6.89,-6.89524c-2.3805,0 -4.4789,1.2145 -5.7161,3.04801c-0.6107,0.90892 -1.01,1.95887 -1.1353,3.10286l-29.7926,0l0,1.17532l29.7535,0l0,-0.43095c0,0.14104 0.0078,0.28991 0.0156,0.43095l-0.0156,0l0,5.24981l-81.039,0l0,-5.24981l-0.0156,0c0.0078,-0.14104 0.0156,-0.28991 0.0156,-0.43095l0,0.43095l29.7535,0l0,-1.17532l-29.7926,0c-0.1253,-1.13615 -0.5246,-2.19394 -1.1353,-3.10286c-1.2372,-1.83351 -3.33556,-3.04801 -5.71583,-3.04801c-3.79748,0 -6.89027,3.09502 -6.89027,6.89524c0,2.35065 1.18231,4.43486 2.991,5.68076c0.92392,0.6347 2.00444,1.0499 3.17109,1.1753l0.02349,0l0,29.7749l1.17448,0l0,-29.7749l5.24604,0l0,81.0974l-5.24604,0l0,-29.7749l-1.17448,0l0,29.7749l-0.02349,0c-1.16665,0.1254 -2.24717,0.5407 -3.17109,1.1753c-1.80869,1.2459 -2.991,3.3301 -2.991,5.681c0,3.8 3.09279,6.895 6.89027,6.895c2.38027,0 4.47863,-1.214 5.71583,-3.048c0.6107,-0.909 1.01,-1.959 1.1353,-3.103l29.7926,0l0,-1.175l-29.7535,0l0,0.431c0,-0.149 -0.0078,-0.29 -0.0156,-0.431l0.0156,0l0,-5.25l81.039,0l0,5.25l0.0156,0c-0.0078,0.141 -0.0156,0.282 -0.0156,0.431l0,-0.431l-29.7535,0l0,1.175l29.7926,0c0.1253,1.136 0.5246,2.194 1.1353,3.103c1.2372,1.841 3.3356,3.048 5.7161,3.048c3.797,0 6.89,-3.095 6.89,-6.895c0,-2.3509 -1.182,-4.4351 -2.991,-5.681zm-93.0029,6.425l-0.047,0c-0.368,2.805 -2.76396,4.976 -5.66883,4.976c-3.1476,0 -5.71579,-2.57 -5.71579,-5.72c0,-2.915 2.19235,-5.3284 5.0111,-5.6731l0,-0.0079l0.03915,0c0.21924,-0.0235 0.43847,-0.0391 0.66554,-0.0391c0.15659,0 0.31319,0.0078 0.46979,0.0156c0.06264,0.0079 0.13311,0.0079 0.19574,0.0157l5.0503,0l0,6.4328zm0,-89.873l-5.0503,0c-0.06263,0.0078 -0.1331,0.0156 -0.19574,0.0156c-0.1566,0.0157 -0.3132,0.0157 -0.46979,0.0157c-0.22707,0 -0.4463,-0.0157 -0.66554,-0.0392l-0.03915,0l0,-0.0078c-2.81875,-0.3369 -5.0111,-2.75026 -5.0111,-5.66506c0,-3.14987 2.56819,-5.71992 5.71579,-5.71992c2.89704,0 5.30083,2.17044 5.66883,4.97555l0.047,0l0,6.42513zm83.3878,-6.42513l0.047,0c0.368,-2.80511 2.7718,-4.97555 5.6691,-4.97555c3.147,0 5.716,2.57005 5.716,5.71992c0,2.9148 -2.193,5.32816 -5.012,5.67286l0,0.0079l-0.039,0c-0.219,0.0235 -0.438,0.0392 -0.665,0.0392c-0.157,0 -0.313,-0.0079 -0.47,-0.0157c-0.063,-0.0079 -0.133,-0.0157 -0.196,-0.0157l-5.0501,0l0,-6.43293zm-1.1744,88.69783l-81.039,0l0,-81.0974l81.039,0l0,81.0974zm6.8905,12.5763c-2.8973,0 -5.3011,-2.171 -5.6691,-4.976l-0.047,0l0,-6.425l5.0501,0c0.063,-0.0078 0.133,-0.0156 0.196,-0.0156c0.157,-0.0157 0.313,-0.0157 0.47,-0.0157c0.227,0 0.446,0.0157 0.665,0.0392l0.039,0l0,0.0078c2.819,0.3448 5.012,2.7581 5.012,5.6733c0,3.142 -2.569,5.712 -5.716,5.712z" fill="#ffffff" id="svg_2"/>
  <text fill="#ffffff" stroke-width="0" x="42.583069" y="131.587196" id="svg_11" font-size="24" font-family="Helvetica, Arial, sans-serif" text-anchor="start" xml:space="preserve" transform="matrix(0.5771499311745634,0,0,0.5487135460294169,19.238712509452366,52.35518011891736) ">7AAC</text>
 </g>
</svg>